# xmcd
#
# Track frame offsets:
#	150
#	13867
#	26795
#	49020
#	75132
#	85902
#	102670
#	122052
#	148847
#
# Disc length: 2255 seconds
#
# Revision: 1
# Processed by: cddbd v1.5.2PL0 Copyright (c) Steve Scherf et al.
# Submitted via: EZCDAudioConverter 3.0.3.2
#
DISCID=7108cd09
DTITLE=Maria Del Mar Bonet - Breviari d'amor
DYEAR=1900
DGENRE=Chanson
TTITLE0=Altes ones que veniu del mar
TTITLE1=Estic en gran desventura
TTITLE2=A la fontana del verger
TTITLE3=Si vols que et deixi d'aimar
TTITLE4=Canconeta lleu i plana
TTITLE5=Amor, no vull anar-me'n nord enllà
TTITLE6=La joia en dóna alegria
TTITLE7=Rei gloriòs! clara llum de veritat
TTITLE8=Faré un vers no res dient
EXTD=
EXTT0=
EXTT1=
EXTT2=
EXTT3=
EXTT4=
EXTT5=
EXTT6=
EXTT7=
EXTT8=
PLAYORDER=
